# xmcd
#
# Track frame offsets: 
#        150
#        14228
#        43074
#        70066
#        88062
#        106746
#        128672
#        149256
#        167430
#        190417
#        209992
#        230662
#        259958
#
# Disc length: 4155 seconds
#
# Revision: 0
# Processed by: cddbd v1.5.2PL0 Copyright (c) Steve Scherf et al.
# Submitted via: ExactAudioCopy v1.0b6
#
DISCID=c410390d
DTITLE=Various Artist - Song DISCovery 088 (October 2010)
DYEAR=2010
DGENRE=Modern Praise and Worship
TTITLE0=Sean Keith - Amen
TTITLE1=Israel Houghton - You Hold My World
TTITLE2=Jesus Culture - You Are My Passion
TTITLE3=Jeremy Camp - We Cry Out
TTITLE4=Jon Shabaglian - I Give You Me
TTITLE5=Kevin and Bethany Paige - One Love
TTITLE6=Michael W. Smith - Welcome Home
TTITLE7=Enfield Hymn Sessions - Crown Him With Many Crowns
TTITLE8=Marie Barnett - We Remember
TTITLE9=Generation Letter - King Of Peace
TTITLE10=LifeWay Worship - Christ Is Able To Save
TTITLE11=WorshipInSong - He Is The King [feat. Tim Neinhuis]
TTITLE12=Data
EXTD=
EXTT0=
EXTT1=
EXTT2=
EXTT3=
EXTT4=
EXTT5=
EXTT6=
EXTT7=
EXTT8=
EXTT9=
EXTT10=
EXTT11=
EXTT12=
PLAYORDER=
